#!OML:ASF Y:\EmotionMaleHayes\Project 1\Capture day 1\Session 1\Male1.ASF
:FULLY-SPECIFIED
:DEGREES
512
root -21.914 16.8239 -15.2425 5.14911 115.279 4.93748
lowerback 7.87071 0.110573 -8.2512
upperback 4.69918 -0.0644531 -3.54026
thorax 0.51316 -0.00886026 0.958078
lowerneck -21.0811 -3.45536 -3.28665
upperneck 27.305 -4.59589 3.94399
head 12.7933 -1.67697 1.32375
rclavicle 7.15625e-015 6.67916e-014
rhumerus -42.9878 8.57361 -82.0103
rradius 51.866
rwrist -0.924001
rhand -18.7404 -35.6198
rfingers 7.12502
rthumb 7.55573 -65.4649
lclavicle 7.15625e-015 6.67916e-014
lhumerus -19.9988 -15.1386 79.7628
lradius 43.8674
lwrist -0.336825
lhand -23.2952 -30.1085
lfingers 7.12502
lthumb 3.15797 -0.152095
rfemur -2.02832 -10.0063 28.1271
rtibia 12.5502
rfoot -15.2558 -2.83969
rtoes 29.7939
lfemur 7.07653 4.19904 -4.25088
ltibia 44.4417
lfoot 1.23803 6.44301
ltoes 4.16487
513
root -21.8225 16.8247 -15.2802 5.83766 114.913 5.7477
lowerback 7.74535 0.143611 -7.71689
upperback 4.61402 -0.00021495 -3.38248
thorax 0.479877 0.0250517 0.822261
lowerneck -21.2308 -3.50302 -3.09588
upperneck 27.2173 -4.6888 3.78465
head 12.7821 -1.72258 1.21071
rclavicle -4.92986e-014 1.27222e-014
rhumerus -42.6653 9.27184 -82.0322
rradius 52.949
rwrist -1.36056
rhand -18.8677 -35.3188
rfingers 7.12502
rthumb 7.4329 -65.1682
lclavicle -4.92986e-014 1.27222e-014
lhumerus -20.8004 -13.7763 79.868
lradius 41.9085
lwrist -0.824237
lhand -22.7365 -29.4546
lfingers 7.12502
lthumb 3.69753 0.49304
rfemur -1.37442 -9.76609 28.4668
rtibia 12.3293
rfoot -15.5484 -2.51701
rtoes 29.8498
lfemur 6.53381 4.34687 -3.87796
ltibia 45.579
lfoot 2.65237 5.99483
ltoes 3.62108
514
root -21.7346 16.8254 -15.3217 6.50245 114.473 6.51361
lowerback 7.58489 0.19116 -7.13511
upperback 4.53593 0.0922061 -3.28279
thorax 0.47301 0.0747486 0.597514
lowerneck -21.4878 -3.60216 -2.97834
upperneck 27.2151 -4.88411 3.80004
head 12.8392 -1.7933 1.15921
rclavicle -2.5842e-014 6.52014e-014
rhumerus -42.2991 9.77841 -81.9614
rradius 53.9092
rwrist -1.31936
rhand -18.6162 -35.2602
rfingers 7.12502
rthumb 7.67562 -65.1009
lclavicle -2.5842e-014 6.52014e-014
lhumerus -21.5948 -12.4508 79.8619
lradius 39.927
lwrist -1.37475
lhand -22.2829 -28.8446
lfingers 7.12502
lthumb 4.13558 1.09503
rfemur -0.83005 -9.68967 28.7414
rtibia 12.2433
rfoot -15.8001 -2.12224
rtoes 29.3102
lfemur 5.97015 4.58055 -3.5934
ltibia 46.7157
lfoot 2.74158 5.35215
ltoes 0.613413
515
root -21.6424 16.8259 -15.3615 6.99742 114.023 7.21107
lowerback 7.51869 0.307132 -6.5822
upperback 4.51866 0.272666 -3.16514
thorax 0.475443 0.168435 0.400367
lowerneck -21.0578 -3.54491 -3.2571
upperneck 26.4993 -4.88708 4.39345
head 12.4911 -1.76395 1.43096
rclavicle -3.33958e-014 -3.49861e-014
rhumerus -41.78 10.0062 -81.7138
rradius 54.689
rwrist -0.938034
rhand -18.683 -35.0734
rfingers 7.12502
rthumb 7.61114 -64.9164
lclavicle -3.33958e-014 -3.49861e-014
lhumerus -22.3184 -11.1245 79.8561
lradius 37.8846
lwrist -2.13859
lhand -21.7785 -28.4138
lfingers 7.12502
lthumb 4.62266 1.51573
rfemur -0.148197 -9.61885 28.952
rtibia 12.1068
rfoot -16.0238 -1.79343
rtoes 28.5916
lfemur 5.54577 4.67428 -3.37903
ltibia 47.8263
lfoot 1.9578 5.01309
ltoes 0.319115
516
root -21.5478 16.8234 -15.3998 7.40098 113.617 7.80671
lowerback 7.46558 0.260245 -6.26149
upperback 4.36921 0.206603 -3.03793
thorax 0.349053 0.13707 0.358642
lowerneck -20.9464 -3.55424 -3.06268
upperneck 26.4881 -4.94313 4.30184
head 12.4581 -1.7824 1.35479
rclavicle 4.53229e-014 4.45278e-014
rhumerus -41.3482 10.7725 -81.733
rradius 55.4529
rwrist -0.613873
rhand -18.6353 -35.4998
rfingers 7.12502
rthumb 7.65721 -65.3412
lclavicle 4.53229e-014 4.45278e-014
lhumerus -23.5139 -9.28448 79.5689
lradius 35.9172
lwrist -3.11688
lhand -21.312 -27.9278
lfingers 7.12502
lthumb 5.07314 1.9915
rfemur 0.607132 -9.48232 29.1226
rtibia 11.833
rfoot -16.2233 -1.52577
rtoes 28.2016
lfemur 5.11188 4.79546 -3.18226
ltibia 48.779
lfoot 1.16562 4.75999
ltoes 0.750612
517
root -21.4596 16.8193 -15.4372 8.18466 113.137 8.74794
lowerback 7.39482 0.429699 -5.5478
upperback 4.39849 0.472992 -2.91804
thorax 0.402417 0.275472 0.0676347
lowerneck -21.174 -3.75532 -3.28763
upperneck 26.2851 -5.24478 4.59299
head 12.4542 -1.90419 1.44655
rclavicle -7.83212e-014 -6.36111e-014
rhumerus -40.6249 10.884 -81.3709
rradius 56.3319
rwrist -0.390938
rhand -18.228 -36.2153
rfingers 7.12502
rthumb 8.05031 -66.042
lclavicle -7.83212e-014 -6.36111e-014
lhumerus -23.9985 -7.95487 79.4021
lradius 33.7739
lwrist -4.21641
lhand -20.7548 -27.3634
lfingers 7.12502
lthumb 5.61109 2.5423
rfemur 1.16559 -9.22963 29.4705
rtibia 11.7346
rfoot -16.4188 -1.24437
rtoes 28.0574
lfemur 4.61833 5.10726 -2.82244
ltibia 49.6295
lfoot 0.519267 4.35209
ltoes -1.73375
518
root -21.3801 16.8165 -15.4738 8.90702 112.337 9.65178
lowerback 7.43095 0.597216 -5.16728
upperback 4.28655 0.694052 -2.75613
thorax 0.255543 0.3881 0.00637539
lowerneck -20.9605 -3.67452 -2.97481
upperneck 25.9722 -5.18299 4.40727
head 12.2681 -1.8816 1.33291
rclavicle 2.22639e-014 6.36111e-015
rhumerus -40.0491 11.3651 -81.147
rradius 57.1945
rwrist -0.134848
rhand -17.8443 -36.5931
rfingers 7.12502
rthumb 8.42064 -66.4052
lclavicle 2.22639e-014 6.36111e-015
lhumerus -24.7363 -5.95168 79.0368
lradius 31.5223
lwrist -5.79264
lhand -20.0736 -26.9795
lfingers 7.12502
lthumb 6.26875 2.90776
rfemur 1.54662 -8.8862 29.7242
rtibia 11.9753
rfoot -16.6087 -0.836752
rtoes 27.7842
lfemur 4.26253 5.61268 -2.59945
ltibia 50.3842
lfoot -0.108901 3.94481
ltoes -3.05736
519
root -21.2939 16.8086 -15.5107 8.52047 111.821 9.23079
lowerback 7.26073 0.580077 -5.26027
upperback 4.17992 0.66385 -2.73962
thorax 0.239184 0.369043 0.0788085
lowerneck -21.0228 -3.56986 -2.40985
upperneck 25.9891 -5.09345 3.93867
head 12.2505 -1.84827 1.075
rclavicle 3.33958e-014 -3.18055e-015
rhumerus -39.3996 12.0852 -81.0936
rradius 57.937
rwrist 0.0293923
rhand -18.4341 -36.5496
rfingers 7.12502
rthumb 7.85136 -66.3838
lclavicle 3.33958e-014 -3.18055e-015
lhumerus -25.5283 -3.40451 78.3382
lradius 29.2287
lwrist -8.03708
lhand -19.319 -26.4772
lfingers 7.12502
lthumb 6.99727 3.38711
rfemur 1.99516 -8.73697 29.4132
rtibia 11.9078
rfoot -16.8557 -0.579793
rtoes 27.812
lfemur 3.64797 5.82243 -3.00102
ltibia 50.9799
lfoot -0.984771 3.61348
ltoes -4.37116
520
root -21.2096 16.8057 -15.5489 8.71799 111.169 9.52161
lowerback 7.18448 0.695926 -4.97253
upperback 4.09763 0.826487 -2.68825
thorax 0.190236 0.452036 -0.0394151
lowerneck -21.2639 -3.69381 -2.28474
upperneck 26.2752 -5.23825 3.66478
head 12.4043 -1.92779 0.924087
rclavicle -1.23246e-014 2.06736e-014
rhumerus -38.7113 12.5922 -80.939
rradius 58.5684
rwrist 0.122593
rhand -19.8042 -36.2419
rfingers 7.12502
rthumb 6.52887 -66.1213
lclavicle -1.23246e-014 2.06736e-014
lhumerus -26.2747 -0.948329 77.5809
lradius 26.9693
lwrist -10.6043
lhand -18.4657 -25.9031
lfingers 7.12502
lthumb 7.82087 3.9323
rfemur 2.50058 -8.30511 29.4072
rtibia 11.8306
rfoot -17.1794 -0.368051
rtoes 28.3884
lfemur 3.11616 6.30694 -3.02369
ltibia 51.5001
lfoot -2.30377 3.42729
ltoes -7.8589
521
root -21.1221 16.8044 -15.5896 9.7748 110.484 10.6992
lowerback 7.05857 0.691638 -4.49754
upperback 3.95272 0.834701 -2.61683
thorax 0.111195 0.458806 -0.230333
lowerneck -20.5753 -3.3531 -1.94867
upperneck 25.8167 -4.88605 3.76685
head 12.0668 -1.74021 0.972505
rclavicle 9.93923e-015 -7.15625e-014
rhumerus -37.976 13.3673 -81.0829
rradius 59.0944
rwrist 0.378585
rhand -20.4512 -36.084
rfingers 7.12502
rthumb 5.90422 -65.9817
lclavicle 9.93923e-015 -7.15625e-014
lhumerus -27.3618 1.69512 76.3436
lradius 24.9166
lwrist -13.2064
lhand -17.7333 -25.4958
lfingers 7.12502
lthumb 8.52775 4.312
rfemur 2.99404 -7.60615 29.836
rtibia 11.7219
rfoot -17.5221 -0.356683
rtoes 28.2472
lfemur 2.62359 6.84646 -2.68959
ltibia 52.0042
lfoot -3.22483 3.54997
ltoes -8.76138
522
root -21.0283 16.8009 -15.6307 9.88956 109.879 10.8241
lowerback 6.79306 0.963748 -4.14498
upperback 4.0378 1.23579 -2.55948
thorax 0.338692 0.658991 -0.389556
lowerneck -21.0104 -3.69795 -2.47732
upperneck 25.8754 -5.3242 4.16826
head 12.2226 -1.92971 1.13335
rclavicle -7.35503e-014 -4.6118e-014
rhumerus -37.0419 13.2574 -80.4716
rradius 59.7015
rwrist 0.580402
rhand -20.4625 -36.0953
rfingers 7.12502
rthumb 5.89334 -65.9933
lclavicle -7.35503e-014 -4.6118e-014
lhumerus -27.7655 4.01642 75.4917
lradius 22.718
lwrist -16.3754
lhand -17.0766 -25.0661
lfingers 7.12502
lthumb 9.16147 4.7149
rfemur 3.58367 -7.00585 29.8321
rtibia 11.5078
rfoot -17.862 -0.321989
rtoes 27.6596
lfemur 2.12439 7.1556 -2.88812
ltibia 52.4245
lfoot -3.67911 3.78287
ltoes -6.68497
523
root -20.9443 16.798 -15.6706 9.85697 109.064 10.8005
lowerback 6.61541 0.991589 -4.23693
upperback 3.89643 1.262 -2.54237
thorax 0.287955 0.667926 -0.320287
lowerneck -20.9499 -3.61188 -2.11958
upperneck 26.0249 -5.28485 4.02989
head 12.2523 -1.88988 1.03007
rclavicle 6.04305e-014 3.18055e-014
rhumerus -36.2822 14.1065 -80.4668
rradius 60.2288
rwrist 0.76578
rhand -20.5082 -36.2408
rfingers 7.12502
rthumb 5.84922 -66.1401
lclavicle 6.04305e-014 3.18055e-014
lhumerus -28.9712 7.4925 73.7227
lradius 20.6662
lwrist -20.1097
lhand -16.2753 -24.7161
lfingers 7.12502
lthumb 9.9346 5.02951
rfemur 4.02284 -6.42853 29.6823
rtibia 11.5802
rfoot -18.1681 -0.0841611
rtoes 27.0819
lfemur 1.60845 7.70237 -3.17434
ltibia 52.8328
lfoot -4.16015 4.00627
ltoes -4.63231
524
root -20.8602 16.7943 -15.7075 10.4201 108.486 11.3426
lowerback 6.43117 1.03053 -3.92949
upperback 3.80551 1.32763 -2.5107
thorax 0.298449 0.701595 -0.460459
lowerneck -20.911 -3.57431 -2.02909
upperneck 26.0912 -5.2901 4.12436
head 12.2718 -1.86728 1.05108
rclavicle 5.12864e-014 -4.45278e-014
rhumerus -35.5109 14.5748 -80.364
rradius 60.8531
rwrist 1.05594
rhand -20.5224 -36.434
rfingers 7.12502
rthumb 5.83546 -66.3336
lclavicle 5.12864e-014 -4.45278e-014
lhumerus -30.1117 11.1599 71.7119
lradius 18.7512
lwrist -24.5438
lhand -15.3383 -24.6425
lfingers 7.12502
lthumb 10.8385 5.05778
rfemur 4.46808 -5.95704 29.8207
rtibia 11.4863
rfoot -18.4266 -0.0129146
rtoes 26.3257
lfemur 0.885597 8.14888 -3.18585
ltibia 53.2298
lfoot -4.54962 4.3151
ltoes -3.20449
525
root -20.7748 16.7907 -15.7442 10.7031 107.863 11.6149
lowerback 6.32739 1.10721 -3.73724
upperback 3.67317 1.43029 -2.48879
thorax 0.219913 0.75345 -0.550837
lowerneck -20.7523 -3.5438 -1.93596
upperneck 26.2322 -5.26703 4.09515
head 12.291 -1.84712 1.03195
rclavicle 8.80616e-014 -2.54444e-014
rhumerus -34.8041 14.959 -80.2307
rradius 61.5565
rwrist 0.987134
rhand -20.3618 -36.5444
rfingers 7.12502
rthumb 5.99054 -66.4397
lclavicle 8.80616e-014 -2.54444e-014
lhumerus -31.6 14.7622 69.4242
lradius 17.2059
lwrist -29.143
lhand -14.2298 -24.2604
lfingers 7.12502
lthumb 11.9075 5.38097
rfemur 4.95193 -5.62035 29.7756
rtibia 11.3539
rfoot -18.6829 0.229456
rtoes 25.6613
lfemur 0.205169 8.52313 -3.37928
ltibia 53.5825
lfoot -5.06842 4.69256
ltoes -0.5206
526
root -20.6916 16.7862 -15.7812 9.9835 107.069 10.8305
lowerback 6.23843 1.26094 -3.88535
upperback 3.56471 1.62333 -2.54411
thorax 0.152023 0.848298 -0.536431
lowerneck -20.207 -3.41059 -2.09545
upperneck 25.8438 -5.10934 4.43772
head 12.0397 -1.76237 1.21815
rclavicle 4.17448e-015 -1.27222e-014
rhumerus -33.9286 15.3482 -80.0191
rradius 62.0629
rwrist 0.362424
rhand -20.6585 -36.0778
rfingers 7.12502
rthumb 5.70405 -65.981
lclavicle 4.17448e-015 -1.27222e-014
lhumerus -33.2573 19.1484 66.4689
lradius 15.6106
lwrist -35.098
lhand -13.3234 -23.6472
lfingers 7.12502
lthumb 12.7814 5.94153
rfemur 5.27568 -5.39514 29.2364
rtibia 11.4954
rfoot -19.1121 0.684797
rtoes 24.6577
lfemur -0.460412 8.87767 -4.09111
ltibia 53.8019
lfoot -5.67253 5.21493
ltoes 2.16885
